<svg xmlns="http://www.w3.org/2000/svg" width="1024" height="1024" viewBox="0 0 1024 1024">
  <path d="M 766 629 L 763 628 L 746 629 L 737 639 L 738 647 L 736 651 L 742 654 L 741 661 L 743 663 L 745 662 L 744 655 L 746 653 L 760 653 L 761 662 L 764 662 L 763 655 L 766 652 L 769 652 L 774 644 L 774 639 L 772 638 L 770 633 Z M 706 607 L 701 605 L 675 606 L 671 612 L 666 614 L 662 618 L 662 620 L 659 623 L 661 629 L 659 630 L 660 632 L 656 638 L 662 645 L 664 644 L 668 645 L 667 647 L 669 648 L 667 650 L 668 653 L 666 655 L 668 659 L 672 657 L 672 647 L 675 643 L 678 644 L 694 643 L 697 648 L 697 658 L 700 659 L 702 657 L 701 645 L 703 643 L 708 643 L 714 635 L 720 632 L 719 622 L 713 619 L 713 616 Z M 176 175 L 153 198 L 142 211 L 122 241 L 109 267 L 104 284 L 102 285 L 103 287 L 101 288 L 96 307 L 95 316 L 93 318 L 90 345 L 90 807 L 52 845 L 52 847 L 23 879 L 21 878 L 20 873 L 19 873 L 20 878 L 22 879 L 28 900 L 31 903 L 31 906 L 36 917 L 38 918 L 38 920 L 49 936 L 49 938 L 58 949 L 81 971 L 96 981 L 105 985 L 108 988 L 117 992 L 120 992 L 134 999 L 143 1001 L 145 1003 L 147 1002 L 148 1004 L 181 1010 L 183 1012 L 221 1017 L 243 1018 L 245 1020 L 286 1021 L 287 1022 L 485 1023 L 490 1012 L 490 1009 L 521 951 L 524 942 L 526 943 L 527 950 L 529 952 L 528 954 L 531 956 L 535 949 L 538 947 L 542 936 L 546 931 L 551 912 L 553 910 L 557 886 L 558 869 L 560 865 L 567 871 L 573 882 L 579 868 L 583 843 L 583 829 L 585 817 L 583 815 L 583 804 L 578 778 L 575 774 L 570 760 L 567 757 L 563 749 L 565 748 L 566 750 L 577 752 L 582 755 L 585 755 L 584 754 L 585 751 L 583 749 L 581 740 L 569 719 L 541 691 L 542 689 L 547 692 L 555 694 L 563 693 L 556 675 L 546 655 L 543 652 L 544 651 L 556 652 L 558 650 L 553 642 L 539 627 L 539 625 L 534 621 L 534 619 L 526 609 L 521 596 L 521 585 L 526 578 L 533 574 L 551 570 L 563 569 L 565 567 L 609 564 L 617 562 L 633 554 L 651 537 L 660 525 L 665 513 L 665 509 L 669 506 L 674 490 L 676 488 L 677 484 L 676 478 L 671 470 L 668 468 L 651 464 L 646 461 L 624 457 L 618 454 L 590 448 L 588 446 L 587 447 L 585 445 L 576 443 L 571 440 L 559 429 L 556 423 L 554 416 L 553 400 L 551 398 L 546 385 L 533 371 L 524 366 L 522 363 L 510 357 L 507 357 L 506 355 L 490 350 L 482 349 L 480 347 L 466 345 L 422 346 L 418 338 L 413 333 L 407 330 L 391 330 L 385 333 L 364 337 L 353 337 L 348 339 L 342 344 L 342 347 L 344 349 L 343 351 L 326 355 L 316 362 L 311 368 L 308 379 L 306 381 L 306 397 L 298 404 L 296 404 L 282 420 L 277 429 L 276 435 L 274 437 L 275 443 L 273 444 L 273 446 L 267 454 L 256 464 L 249 469 L 247 469 L 245 472 L 240 474 L 236 478 L 237 480 L 244 481 L 245 483 L 238 488 L 226 500 L 216 515 L 214 522 L 215 528 L 223 524 L 229 525 L 227 534 L 225 536 L 226 537 L 220 549 L 212 560 L 193 579 L 186 584 L 186 587 L 201 588 L 202 590 L 198 595 L 194 604 L 192 605 L 193 606 L 190 608 L 190 610 L 183 619 L 172 630 L 160 639 L 158 639 L 162 643 L 167 644 L 183 644 L 184 643 L 187 644 L 187 647 L 184 651 L 185 653 L 183 655 L 183 661 L 179 680 L 176 684 L 177 685 L 175 687 L 170 702 L 167 705 L 161 719 L 157 723 L 156 727 L 146 742 L 144 743 L 144 745 L 139 749 L 139 751 L 131 760 L 130 759 L 130 698 L 132 696 L 154 696 L 165 671 L 132 671 L 130 669 L 130 350 L 133 325 L 135 323 L 141 296 L 143 295 L 142 293 L 144 292 L 148 279 L 156 263 L 162 255 L 165 248 L 168 246 L 174 236 L 187 221 L 207 202 L 237 181 L 257 171 L 267 168 L 269 166 L 290 160 L 294 160 L 295 158 L 326 154 L 700 154 L 729 158 L 730 160 L 750 164 L 785 180 L 812 198 L 834 218 L 850 236 L 855 245 L 859 248 L 859 250 L 868 263 L 876 279 L 879 289 L 881 291 L 880 292 L 883 296 L 887 314 L 889 316 L 888 319 L 890 320 L 894 351 L 894 669 L 892 671 L 843 671 L 841 669 L 841 661 L 849 656 L 852 651 L 854 638 L 857 635 L 864 635 L 866 633 L 866 630 L 860 621 L 861 618 L 859 615 L 853 613 L 844 613 L 838 616 L 838 619 L 833 623 L 828 624 L 804 623 L 801 624 L 794 631 L 792 637 L 792 647 L 794 649 L 794 653 L 796 656 L 802 660 L 802 669 L 800 671 L 584 671 L 591 683 L 593 690 L 593 696 L 893 696 L 894 697 L 894 770 L 893 771 L 609 771 L 613 778 L 615 788 L 615 797 L 893 797 L 894 798 L 894 997 L 903 992 L 906 992 L 917 987 L 918 985 L 920 985 L 934 976 L 934 345 L 930 314 L 928 312 L 923 288 L 918 278 L 916 270 L 912 264 L 913 263 L 910 259 L 905 246 L 901 242 L 899 236 L 894 230 L 891 223 L 887 220 L 887 218 L 869 196 L 836 165 L 810 147 L 802 144 L 801 142 L 773 129 L 770 129 L 765 126 L 749 121 L 741 120 L 739 118 L 704 113 L 319 113 L 285 118 L 283 120 L 264 124 L 241 134 L 238 134 L 237 136 L 222 142 L 220 145 L 214 147 L 200 157 L 198 157 L 195 161 L 193 161 Z M 807 663 L 810 660 L 818 661 L 832 660 L 836 663 L 836 670 L 835 671 L 808 671 Z M 408 366 L 412 369 L 421 369 L 437 366 L 467 366 L 491 371 L 492 373 L 505 377 L 521 389 L 529 398 L 533 407 L 539 432 L 542 439 L 547 444 L 547 446 L 560 457 L 566 459 L 571 463 L 588 469 L 598 478 L 601 487 L 603 489 L 603 505 L 601 507 L 601 512 L 595 525 L 586 534 L 581 536 L 579 539 L 568 544 L 565 544 L 564 546 L 542 551 L 529 556 L 510 560 L 508 562 L 493 566 L 483 572 L 475 580 L 472 588 L 470 589 L 469 600 L 465 601 L 458 598 L 459 604 L 462 609 L 473 619 L 467 622 L 450 623 L 440 621 L 436 618 L 435 619 L 429 616 L 417 606 L 409 596 L 408 592 L 392 568 L 386 563 L 386 561 L 375 550 L 372 549 L 368 545 L 366 541 L 351 524 L 337 499 L 333 488 L 332 481 L 330 479 L 331 478 L 328 473 L 324 452 L 324 443 L 322 441 L 323 440 L 327 443 L 331 450 L 336 454 L 336 456 L 342 463 L 353 484 L 359 490 L 363 492 L 373 492 L 382 484 L 390 458 L 391 416 L 393 403 L 395 397 L 405 385 L 402 376 Z" fill="#F5EBDD" fill-rule="evenodd"/>
</svg>
